<svg width="16" height="16" viewBox="0 0 16 16" fill="none" xmlns="http://www.w3.org/2000/svg">
<path d="M7.0891 0.552761C7.32858 -0.184288 8.37131 -0.184288 8.61079 0.552761L9.91547 4.56816C10.0226 4.89778 10.3297 5.12095 10.6763 5.12095H14.8984C15.6733 5.12095 15.9956 6.11264 15.3686 6.56816L11.9529 9.04982C11.6725 9.25354 11.5552 9.61463 11.6623 9.94425L12.967 13.9597C13.2064 14.6967 12.3629 15.3096 11.7359 14.8541L8.32017 12.3724C8.03978 12.1687 7.66011 12.1687 7.37972 12.3724L3.96401 14.8541C3.33704 15.3096 2.49346 14.6967 2.73294 13.9597L4.03762 9.94425C4.14472 9.61463 4.02739 9.25354 3.747 9.04982L0.331298 6.56816C-0.295673 6.11264 0.0265479 5.12095 0.801527 5.12095H5.02357C5.37015 5.12095 5.67732 4.89778 5.78442 4.56816L7.0891 0.552761Z" fill="#FFC71E"/>
</svg>
